<svg width="70" height="69" viewBox="0 0 70 69" fill="none" xmlns="http://www.w3.org/2000/svg">
<path d="M60.5904 51.1935C57.304 51.1935 54.4338 52.9887 52.8914 55.6452H46.1149C56.5651 51.2781 63.9291 40.9515 63.9291 28.9355C63.9291 12.9809 50.9482 0 34.9936 0C19.4119 0 6.66692 12.381 6.07931 27.8226H2.56921L10.5098 37.3513L18.4503 27.8226H14.9914C15.5713 17.2923 24.3209 8.90323 34.9936 8.90323C46.0392 8.90323 55.0259 17.8899 55.0259 28.9355C55.0259 39.981 46.0392 48.9677 34.9936 48.9677H22.7517V62.3226H51.9799C52.9726 66.1565 56.4504 69 60.5904 69C65.4994 69 69.4936 65.0058 69.4936 60.0968C69.4936 55.1878 65.4994 51.1935 60.5904 51.1935V51.1935ZM34.9936 51.1935C47.2667 51.1935 57.2517 41.2086 57.2517 28.9355C57.2517 16.6624 47.2667 6.67742 34.9936 6.67742C22.7206 6.67742 12.7356 16.6624 12.7356 28.9355V30.0484H13.6982L10.5098 33.8745L7.32131 30.0484H8.28397V28.9355C8.28397 14.2084 20.2666 2.22581 34.9936 2.22581C49.7207 2.22581 61.7033 14.2084 61.7033 28.9355C61.7033 43.6625 49.7207 55.6452 34.9936 55.6452H24.9775V51.1935H34.9936ZM24.9775 60.0968V57.871H51.9799C51.7951 58.5843 51.6872 59.3266 51.6872 60.0968H24.9775ZM60.5904 66.7742C56.9078 66.7742 53.913 63.7794 53.913 60.0968C53.913 56.4142 56.9078 53.4194 60.5904 53.4194C64.273 53.4194 67.2678 56.4142 67.2678 60.0968C67.2678 63.7794 64.273 66.7742 60.5904 66.7742Z" fill="#4047CD"/>
<path d="M64.2553 57.0842L59.4776 61.8619L58.0386 60.4229L56.465 61.9965L59.4776 65.0092L65.8289 58.6578L64.2553 57.0842Z" fill="#4047CD"/>
<path d="M17.1872 40.0644H3.83236C1.99162 40.0644 0.493652 41.5624 0.493652 43.4031V65.6612C0.493652 67.5019 1.99162 68.9999 3.83236 68.9999H17.1872C19.0279 68.9999 20.5259 67.5019 20.5259 65.6612V43.4031C20.5259 41.5624 19.0279 40.0644 17.1872 40.0644ZM18.3001 65.6612C18.3001 66.2755 17.8004 66.7741 17.1872 66.7741H3.83236C3.21915 66.7741 2.71946 66.2755 2.71946 65.6612V43.4031C2.71946 42.7888 3.21915 42.2902 3.83236 42.2902H17.1872C17.8004 42.2902 18.3001 42.7888 18.3001 43.4031V65.6612Z" fill="#4047CD"/>
<path d="M36.1066 36.7258C40.4024 36.7258 43.8969 33.2313 43.8969 28.9355C43.8969 24.6397 40.4024 21.1452 36.1066 21.1452C31.8108 21.1452 28.3163 24.6397 28.3163 28.9355C28.3163 33.2313 31.8108 36.7258 36.1066 36.7258ZM36.1066 23.371C39.1749 23.371 41.6711 25.8673 41.6711 28.9355C41.6711 32.0038 39.1749 34.5 36.1066 34.5C33.0383 34.5 30.5421 32.0038 30.5421 28.9355C30.5421 25.8673 33.0383 23.371 36.1066 23.371Z" fill="#4047CD"/>
<path d="M21.6387 33.1431L24.3274 33.8142L22.9018 36.1902L28.8525 42.1398L31.2274 40.7142L31.8985 43.4029H40.3143L40.9854 40.7142L43.3603 42.1398L49.311 36.1902L47.8854 33.8142L50.5742 33.1431V24.7273L47.8854 24.0562L49.311 21.6813L43.3603 15.7306L40.9854 17.1562L40.3143 14.4675H31.8985L31.2274 17.1562L28.8525 15.7306L22.9018 21.6813L24.3274 24.0562L21.6387 24.7273V33.1431ZM23.8645 26.4657L26.5866 25.7857L27.1453 24.4257L25.703 22.0241L29.1953 18.5318L31.5969 19.9741L32.9569 19.4154L33.6369 16.6933H38.5759L39.2559 19.4154L40.6159 19.9741L43.0175 18.5318L46.5098 22.0241L45.0675 24.4257L45.6262 25.7857L48.3483 26.4657V31.4047L46.1793 31.9467L45.585 32.176L45.0664 33.4425L46.5087 35.8463L43.0164 39.3397L40.6148 37.8974L39.257 38.4494L38.5759 41.1771H33.6369L33.0949 39.0081L32.869 38.4127L31.598 37.8963L29.1964 39.3386L25.7041 35.8452L27.1464 33.4414L26.5866 32.0836L23.8645 31.4047V26.4657Z" fill="#4047CD"/>
<path d="M36.1065 32.274C37.9473 32.274 39.4452 30.7761 39.4452 28.9353C39.4452 27.0946 37.9473 25.5966 36.1065 25.5966C34.2658 25.5966 32.7678 27.0946 32.7678 28.9353C32.7678 30.7761 34.2658 32.274 36.1065 32.274ZM36.1065 27.8224C36.7197 27.8224 37.2194 28.3221 37.2194 28.9353C37.2194 29.5485 36.7197 30.0482 36.1065 30.0482C35.4933 30.0482 34.9936 29.5485 34.9936 28.9353C34.9936 28.3221 35.4933 27.8224 36.1065 27.8224Z" fill="#4047CD"/>
<path d="M4.94531 44.5161H16.0743V46.7419H4.94531V44.5161Z" fill="#4047CD"/>
<path d="M4.94531 48.9674H16.0743V51.1932H4.94531V48.9674Z" fill="#4047CD"/>
<path d="M4.94531 53.4192H16.0743V55.645H4.94531V53.4192Z" fill="#4047CD"/>
<path d="M4.94531 57.8709H16.0743V60.0967H4.94531V57.8709Z" fill="#4047CD"/>
<path d="M13.8486 62.3226H16.0744V64.5484H13.8486V62.3226Z" fill="#4047CD"/>
<path d="M9.39697 62.3226H11.6228V64.5484H9.39697V62.3226Z" fill="#4047CD"/>
<path d="M4.94531 62.3226H7.17112V64.5484H4.94531V62.3226Z" fill="#4047CD"/>
</svg>
