<svg width="70" height="69" viewBox="0 0 70 69" fill="none" xmlns="http://www.w3.org/2000/svg">
<path d="M63.5103 40.0645H55.0322V33.6186L52.0997 32.9286C51.7291 31.6376 51.2149 30.3956 50.5628 29.2204L52.1486 26.6585L49.619 24.1289L55.5419 16.7247C56.7004 17.4069 58.0448 17.8065 59.4838 17.8065C63.7796 17.8065 67.2741 14.3119 67.2741 10.0161C67.2741 5.72032 63.7796 2.22581 59.4838 2.22581C55.7389 2.22581 52.6049 4.88231 51.8626 8.4091L32.743 7.176C32.428 3.16732 29.0715 0 24.9838 0C20.688 0 17.1935 3.49452 17.1935 7.79032C17.1935 12.0861 20.688 15.5806 24.9838 15.5806C28.7287 15.5806 31.8626 12.9241 32.605 9.39736L51.7246 10.6305C51.8671 12.4434 52.6316 14.0793 53.8058 15.3325L48.0365 22.5452L46.1813 20.69L43.6194 22.2759C42.4441 21.6237 41.2021 21.1084 39.9112 20.7378L39.22 17.8065H30.7798L30.0898 20.7378C28.7988 21.1084 27.5568 21.6226 26.3816 22.2759L23.8197 20.69L17.8512 26.6585L19.4371 29.2204C18.7849 30.3956 18.2696 31.6376 17.899 32.9286L14.9677 33.6186V40.0645H6.48957L0.925049 51.1935H6.06444V69H63.9354V51.1935H69.0748L63.5103 40.0645ZM59.4838 4.45161C62.5521 4.45161 65.0483 6.94785 65.0483 10.0161C65.0483 13.0844 62.5521 15.5806 59.4838 15.5806C56.4155 15.5806 53.9193 13.0844 53.9193 10.0161C53.9193 6.94785 56.4155 4.45161 59.4838 4.45161ZM24.9838 13.3548C21.9155 13.3548 19.4193 10.8586 19.4193 7.79032C19.4193 4.72205 21.9155 2.22581 24.9838 2.22581C28.0521 2.22581 30.5483 4.72205 30.5483 7.79032C30.5483 10.8586 28.0521 13.3548 24.9838 13.3548ZM65.4734 48.9677H42.3651L39.0264 42.2903H62.1347L65.4734 48.9677ZM31.1571 40.0645C30.7642 39.3901 30.5483 38.6322 30.5483 37.8387C30.5483 35.3836 32.5449 33.3871 34.9999 33.3871C37.455 33.3871 39.4515 35.3836 39.4515 37.8387C39.4515 38.6333 39.2356 39.389 38.8439 40.0645H31.1571ZM24.1202 40.0645C23.9722 39.3333 23.8709 38.591 23.8709 37.8387C23.8709 31.7022 28.8634 26.7097 34.9999 26.7097C41.1365 26.7097 46.129 31.7022 46.129 37.8387C46.129 38.5921 46.0277 39.3333 45.8797 40.0645H41.29C41.5405 39.3567 41.6773 38.6088 41.6773 37.8387C41.6773 34.1561 38.6825 31.1613 34.9999 31.1613C31.3173 31.1613 28.3225 34.1561 28.3225 37.8387C28.3225 38.6088 28.4594 39.3567 28.7109 40.0645H24.1202ZM17.1935 35.3814L19.722 34.786L19.8845 34.1238C20.2595 32.5925 20.866 31.1312 21.6863 29.7791L22.0402 29.1959L20.6724 26.9857L24.148 23.5101L26.3582 24.8778L26.9414 24.5239C28.2925 23.7037 29.7548 23.0983 31.2862 22.7221L31.9483 22.5597L32.5426 20.0323H37.4572L38.0526 22.5608L38.7148 22.7233C40.2461 23.0983 41.7074 23.7048 43.0596 24.525L43.6427 24.879L45.853 23.5112L49.3285 26.9868L47.9608 29.197L48.3147 29.7802C49.1338 31.1301 49.7403 32.5925 50.1165 34.125L50.279 34.7871L52.8064 35.3814V40.0645H48.1622C48.2846 39.3311 48.3548 38.5877 48.3548 37.8387C48.3548 30.4746 42.364 24.4839 34.9999 24.4839C27.6358 24.4839 21.6451 30.4746 21.6451 37.8387C21.6451 38.5877 21.7152 39.3311 21.8376 40.0645H17.1935V35.3814ZM7.86511 42.2903H33.1992L29.8605 48.9677H4.5264L7.86511 42.2903ZM8.29024 51.1935H31.2361L34.9999 43.6659V66.7742H8.29024V51.1935ZM61.7096 66.7742H37.2257V43.6659L40.9896 51.1935H61.7096V66.7742Z" fill="#4047CD"/>
<path d="M59.484 13.3548C61.3247 13.3548 62.8227 11.8569 62.8227 10.0161C62.8227 8.1754 61.3247 6.67743 59.484 6.67743C57.6432 6.67743 56.1453 8.1754 56.1453 10.0161C56.1453 11.8569 57.6432 13.3548 59.484 13.3548ZM59.484 8.90324C60.0972 8.90324 60.5969 9.40293 60.5969 10.0161C60.5969 10.6293 60.0972 11.129 59.484 11.129C58.8708 11.129 58.3711 10.6293 58.3711 10.0161C58.3711 9.40293 58.8708 8.90324 59.484 8.90324Z" fill="#4047CD"/>
<path d="M24.984 4.4516C23.1432 4.4516 21.6453 5.94957 21.6453 7.79031C21.6453 9.63105 23.1432 11.129 24.984 11.129C26.8247 11.129 28.3227 9.63105 28.3227 7.79031C28.3227 5.94957 26.8247 4.4516 24.984 4.4516ZM24.984 8.90321C24.3708 8.90321 23.8711 8.40352 23.8711 7.79031C23.8711 7.1771 24.3708 6.67741 24.984 6.67741C25.5972 6.67741 26.0969 7.1771 26.0969 7.79031C26.0969 8.40352 25.5972 8.90321 24.984 8.90321Z" fill="#4047CD"/>
<path d="M6.06452 26.7097H16.0806V21.1452C16.0806 18.0769 13.5844 15.5807 10.5161 15.5807H6.06452C2.99624 15.5807 0.5 18.0769 0.5 21.1452C0.5 24.2135 2.99624 26.7097 6.06452 26.7097ZM6.06452 17.8065H10.5161C12.3569 17.8065 13.8548 19.3045 13.8548 21.1452V24.4839H6.06452C4.22377 24.4839 2.72581 22.9859 2.72581 21.1452C2.72581 19.3045 4.22377 17.8065 6.06452 17.8065Z" fill="#4047CD"/>
<path d="M4.95166 20.0323H7.17747V22.2581H4.95166V20.0323Z" fill="#4047CD"/>
<path d="M9.40332 20.0323H11.6291V22.2581H9.40332V20.0323Z" fill="#4047CD"/>
<path d="M59.4839 20.0323C56.4157 20.0323 53.9194 22.5285 53.9194 25.5968V31.1613H63.9356C67.0038 31.1613 69.5001 28.6651 69.5001 25.5968C69.5001 22.5285 67.0038 20.0323 63.9356 20.0323H59.4839ZM67.2743 25.5968C67.2743 27.4375 65.7763 28.9355 63.9356 28.9355H56.1452V25.5968C56.1452 23.7561 57.6432 22.2581 59.4839 22.2581H63.9356C65.7763 22.2581 67.2743 23.7561 67.2743 25.5968Z" fill="#4047CD"/>
<path d="M62.8225 24.4839H65.0483V26.7097H62.8225V24.4839Z" fill="#4047CD"/>
<path d="M58.3708 24.4839H60.5967V26.7097H58.3708V24.4839Z" fill="#4047CD"/>
<path d="M10.5161 53.4193V64.5483H32.7742V53.4193H10.5161ZM30.5484 62.3225H12.7419V55.6451H30.5484V62.3225Z" fill="#4047CD"/>
<path d="M26.0967 57.871H28.3225V60.0968H26.0967V57.871Z" fill="#4047CD"/>
<path d="M21.6453 57.871H23.8711V60.0968H21.6453V57.871Z" fill="#4047CD"/>
<path d="M17.1936 57.871H19.4194V60.0968H17.1936V57.871Z" fill="#4047CD"/>
<path d="M57.2581 62.3226H59.4839V64.5484H57.2581V62.3226Z" fill="#4047CD"/>
<path d="M52.8064 62.3226H55.0322V64.5484H52.8064V62.3226Z" fill="#4047CD"/>
<path d="M48.3547 62.3226H50.5805V64.5484H48.3547V62.3226Z" fill="#4047CD"/>
<path d="M48.3547 57.871H59.4838V60.0968H48.3547V57.871Z" fill="#4047CD"/>
</svg>
