<svg width="73" height="72" viewBox="0 0 73 72" fill="none" xmlns="http://www.w3.org/2000/svg">
<path d="M49.623 29.2367L48.8007 27.0396C48.0652 27.3153 47.3192 27.5675 46.5825 27.7904L47.2605 30.0356C48.0453 29.7986 48.8406 29.53 49.623 29.2367V29.2367Z" fill="#4047CD"/>
<path d="M42.2294 34.3469V31.1938C43.0998 31.0542 43.9737 30.8829 44.8406 30.6835L44.3115 28.3973C43.1807 28.66 42.0347 28.8665 40.905 29.0155L39.8833 29.1504V34.3481C39.8833 34.6625 39.8903 34.9757 39.9068 35.2877L42.2505 35.1681C42.2364 34.8947 42.2294 34.6226 42.2294 34.3469V34.3469Z" fill="#4047CD"/>
<path d="M21.1147 14.0777C17.2331 14.0777 14.0764 17.2343 14.0764 21.1159C14.0764 24.9975 17.2331 28.1542 21.1147 28.1542C24.9962 28.1542 28.1529 24.9975 28.1529 21.1159C28.1529 17.2343 24.9962 14.0777 21.1147 14.0777ZM21.1147 25.8081C18.5269 25.8081 16.4225 23.7037 16.4225 21.1159C16.4225 18.5282 18.5269 16.4238 21.1147 16.4238C23.7024 16.4238 25.8068 18.5282 25.8068 21.1159C25.8068 23.7037 23.7024 25.8081 21.1147 25.8081Z" fill="#4047CD"/>
<path d="M52.1747 20.8666L51.6151 20.5627L51.0556 20.8666C46.5652 23.2994 41.4824 24.6027 36.3574 24.6332L35.1914 24.6402V34.3471C35.1914 44.5256 41.6302 53.6964 51.214 57.1663L51.614 57.3106L52.014 57.1663C61.5977 53.6964 68.0365 44.5256 68.0365 34.3471V24.6402L66.8705 24.6332C61.749 24.6027 56.6674 23.2994 52.1747 20.8666V20.8666ZM65.6904 34.3471C65.6904 43.3995 60.0516 51.5697 51.614 54.8108C43.1763 51.5685 37.5375 43.3983 37.5375 34.3471V26.9511C42.4384 26.7505 47.2702 25.4719 51.6151 23.2244C55.9612 25.4719 60.7918 26.7505 65.6904 26.9511V34.3471Z" fill="#4047CD"/>
<path d="M46.9215 35.8781L41.7437 41.0559L49.2675 48.5798L63.8296 34.0176L58.6518 28.8398L49.2675 38.2242L46.9215 35.8781ZM60.5123 34.0176L49.2675 45.2624L45.061 41.0559L46.9215 39.1954L49.2675 41.5415L58.6518 32.1572L60.5123 34.0176Z" fill="#4047CD"/>
<path d="M72.7285 19.9417H67.0639C61.7922 19.9417 56.6883 18.3968 52.2577 15.4419L51.5692 15.0419L50.9228 15.4724C48.2518 17.2542 45.311 18.5164 42.2294 19.2367V16.6665L39.1385 15.9393C38.749 14.5797 38.2059 13.2706 37.5185 12.0307L39.1913 9.32918L32.9002 3.03817L30.1987 4.71093C28.9588 4.02353 27.6497 3.48041 26.2902 3.09096L25.5629 0H16.6665L15.9393 3.09096C14.5797 3.48041 13.2706 4.02353 12.0307 4.71093L9.32918 3.03817L3.03817 9.32918L4.71093 12.0307C4.02353 13.2706 3.48041 14.5797 3.09096 15.9393L0 16.6665V25.5629L3.09096 26.2902C3.48041 27.6497 4.02353 28.9588 4.71093 30.1987L3.03817 32.9002L9.32918 39.1913L12.0307 37.5185C13.2706 38.2059 14.5797 38.749 15.9393 39.1385L16.6665 42.2294H25.5629L26.2902 39.1385C27.6497 38.749 28.9588 38.2059 30.1987 37.5185L30.7395 37.8528C31.3683 42.9239 33.3178 47.6805 36.3056 51.6712L32.3595 66.1407L38.1519 64.692L42.5356 71.9988L46.4688 60.1992C47.9984 60.9723 49.602 61.6268 51.2829 62.1218L51.6137 62.2204L51.9445 62.123C53.6255 61.628 55.2291 60.9734 56.7587 60.2004L60.6919 72L65.0756 64.6931L70.868 66.1418L66.9219 51.6724C70.59 46.7714 72.7285 40.7256 72.7285 34.3466V19.9417ZM30.2245 34.7759L29.611 35.149C28.1858 36.0123 26.6468 36.6516 25.0327 37.0458L24.3335 37.217L23.7048 39.8833H18.5246L17.8971 37.217L17.1979 37.0458C15.5838 36.6516 14.0448 36.0123 12.6196 35.149L12.0061 34.7759L9.6764 36.2176L6.013 32.5542L7.45467 30.2245L7.08164 29.611C6.21828 28.1858 5.57898 26.6468 5.18484 25.0327L5.01357 24.3335L2.34608 23.7048V18.5246L5.0124 17.8971L5.18366 17.1979C5.5778 15.5838 6.21711 14.0448 7.08047 12.6196L7.45349 12.0061L6.01183 9.67523L9.67523 6.01183L12.0049 7.45349L12.6184 7.08047C14.0436 6.21711 15.5827 5.5778 17.1968 5.18366L17.8959 5.0124L18.5246 2.34608H23.7048L24.3324 5.0124L25.0315 5.18366C26.6456 5.5778 28.1846 6.21711 29.6099 7.08047L30.2234 7.45349L32.553 6.01183L36.2164 9.67523L34.7748 12.0049L35.1478 12.6184C36.0111 14.0436 36.6505 15.5827 37.0446 17.1968L37.2159 17.8959L39.8833 18.5246V19.6766C38.6575 19.8478 37.4164 19.9417 36.1636 19.9417H35.1314C34.5319 12.7275 28.4814 7.03824 21.1147 7.03824C13.3527 7.03824 7.03824 13.3527 7.03824 21.1147C7.03824 28.8767 13.3527 35.1912 21.1147 35.1912C24.6104 35.1912 27.9418 33.8786 30.499 31.5923V34.3478C30.499 34.5542 30.5201 34.7572 30.5248 34.9624L30.2245 34.7759ZM30.499 19.9417V28.1283C28.2855 31.082 24.811 32.8451 21.1147 32.8451C14.6466 32.8451 9.38432 27.5829 9.38432 21.1147C9.38432 14.6466 14.6466 9.38432 21.1147 9.38432C27.1864 9.38432 32.1952 14.0225 32.7853 19.9417H30.499ZM41.9233 66.4187L39.2687 61.9951L35.6768 62.8925L38.139 53.8625C39.9596 55.8578 42.057 57.6033 44.3843 59.0344L41.9233 66.4187ZM67.5507 62.8925L63.9588 61.9951L61.3042 66.4187L58.8432 59.0344C61.1705 57.6033 63.2679 55.8578 65.0885 53.8625L67.5507 62.8925ZM70.3824 34.3466C70.3824 45.9527 62.6825 56.3587 51.6137 59.7734C40.5449 56.3587 32.8451 45.9527 32.8451 34.3466V22.2878H36.1636C41.6453 22.2878 46.9591 20.7522 51.6126 17.8208C56.2437 20.7464 61.5705 22.2878 67.0639 22.2878H70.3824V34.3466Z" fill="#4047CD"/>
</svg>
