<svg width="69" height="69" viewBox="0 0 69 69" fill="none" xmlns="http://www.w3.org/2000/svg">
<path d="M67.9767 18.0984C67.9766 18.0984 67.9766 18.0984 67.9764 18.0984L67.9741 18.0961L63.5231 17.461C62.8975 17.3719 62.4625 16.7925 62.5516 16.1669C62.5944 15.8663 62.755 15.5951 62.9979 15.4129L66.5953 12.7148C67.1009 12.3356 67.2034 11.6184 66.8242 11.1128L62.705 5.62054C62.3258 5.11493 61.6086 5.01252 61.103 5.39169L57.5067 8.08978C57.0033 8.47181 56.2855 8.37341 55.9035 7.86995C55.718 7.62551 55.6385 7.31671 55.6828 7.01306L56.319 2.56201C56.4087 1.9364 55.9743 1.35671 55.3488 1.26688C55.3484 1.26688 55.348 1.26674 55.3476 1.26674L48.5554 0.296433C47.9299 0.206611 47.35 0.640846 47.2601 1.26645C47.2601 1.2666 47.2601 1.2666 47.2601 1.26674L46.624 5.7178C46.5348 6.3434 45.9554 6.77835 45.3298 6.68925C45.0292 6.64648 44.758 6.48586 44.5758 6.243L41.8788 2.64554C41.4997 2.13993 40.7825 2.03752 40.2769 2.41669L36.8385 4.99693C35.2829 4.83159 33.7142 4.83159 32.1586 4.99693C21.9712 6.16133 13.9824 14.2856 12.9893 24.4912C12.9584 24.815 12.947 25.1365 12.9309 25.4581H12.5877C12.0447 25.4591 11.5772 25.8415 11.4686 26.3734L10.678 30.1334L7.51073 27.949C7.05618 27.6354 6.4423 27.6913 6.05184 28.0818L2.61915 31.5145C2.22925 31.9048 2.17347 32.5178 2.48641 32.9722L4.66045 36.1337L0.899367 36.9244C0.373308 37.0397 -0.00114162 37.5061 2.61518e-06 38.0446V42.6215C-0.000283442 43.1627 0.378886 43.6301 0.908521 43.7417L4.66961 44.5324L2.49557 47.6939C2.18262 48.1483 2.2384 48.7613 2.6283 49.1516L6.06099 52.5843C6.45146 52.9748 7.06534 53.0307 7.51988 52.7171L10.6814 50.5373L11.4721 54.2984C11.5806 54.8303 12.0482 55.2128 12.5911 55.2138H17.168C17.7093 55.214 18.1767 54.8349 18.2882 54.3052L19.0789 50.5442L22.2404 52.7182C22.6948 53.0311 23.3078 52.9754 23.6982 52.5855L25.4751 50.8028V54.0638C25.4803 55.6916 26.3523 57.1933 27.7636 58.0045V64.3619C27.7636 66.8896 29.8128 68.9388 32.3405 68.9388H36.9174C39.4452 68.9388 41.4944 66.8896 41.4944 64.3619V58.0045C42.9056 57.1933 43.7777 55.6916 43.7828 54.0638V49.5349C43.8139 47.6294 44.8108 45.8701 46.4294 44.8642C47.379 44.2482 48.2795 43.5595 49.1229 42.8046L47.5965 41.0997C46.8421 41.7759 46.036 42.3922 45.1857 42.943C42.9136 44.369 41.5228 46.8526 41.4944 49.5349V54.0638C41.4944 55.3278 40.4699 56.3523 39.2059 56.3523H30.0521C28.7881 56.3523 27.7636 55.3278 27.7636 54.0638V49.44C27.7371 46.8084 26.3682 44.3728 24.1341 42.9819C15.0651 37.2834 12.3327 25.312 18.0312 16.243C21.5669 10.6161 27.7374 7.19128 34.383 7.16754C34.366 7.2083 34.3509 7.24992 34.3383 7.29226C34.2959 7.59262 34.3745 7.8977 34.5569 8.14013L37.2538 11.7364C37.5382 12.1045 37.5655 12.6099 37.3225 13.0065C37.0885 13.4056 36.6361 13.6233 36.1783 13.5569L31.7272 12.9207C31.1016 12.831 30.5219 13.2654 30.4321 13.8909C30.4321 13.8913 30.4319 13.8917 30.4319 13.8922L29.4605 20.6878C29.3708 21.3132 29.8052 21.8931 30.4307 21.9829C30.4311 21.9829 30.4315 21.983 30.4319 21.983L34.883 22.6192C35.5086 22.7083 35.9436 23.2877 35.8545 23.9133C35.8117 24.214 35.6511 24.4852 35.4082 24.6674L31.8119 27.3643C31.3063 27.7435 31.2039 28.4607 31.583 28.9663L35.7023 34.4586C36.0814 34.9642 36.7986 35.0666 37.3042 34.6874L40.9017 31.9905C41.4077 31.612 42.1248 31.7154 42.5033 32.2216C42.6844 32.4637 42.7623 32.7678 42.7198 33.0672L42.0848 37.5182C41.995 38.1437 42.4292 38.7237 43.0548 38.8135C43.055 38.8135 43.055 38.8135 43.0551 38.8135L49.8518 39.785C49.9053 39.7918 49.9592 39.7953 50.0132 39.7953C50.5828 39.796 51.0661 39.3775 51.1471 38.8135L51.7821 34.3625C51.8712 33.7368 52.4507 33.3019 53.0763 33.391C53.3769 33.4338 53.6481 33.5944 53.8303 33.8373L56.5284 37.4336C56.9076 37.9392 57.6247 38.0416 58.1303 37.6624L63.6226 33.5432C64.1282 33.164 64.2306 32.4469 63.8515 31.9413L61.1545 28.3449C60.8715 27.9764 60.8442 27.4718 61.0859 27.0749C61.3149 26.6705 61.7714 26.4514 62.2301 26.5256L66.6812 27.1607C67.3066 27.2505 67.8866 26.8161 67.9764 26.1906C67.9764 26.1905 67.9764 26.1905 67.9764 26.1904L68.9467 19.3936C69.0366 18.768 68.6023 18.1882 67.9767 18.0984ZM30.0521 58.6407H39.2059V60.9292H30.0521V58.6407V58.6407ZM30.0521 63.2176H39.2059V64.3619C39.2059 65.6258 38.1814 66.6503 36.9174 66.6503H32.3405C31.0766 66.6503 30.0521 65.6258 30.0521 64.3619V63.2176V63.2176ZM20.9428 43.4854C21.5676 43.9963 22.2204 44.472 22.8983 44.91C23.9795 45.5932 24.7933 46.6269 25.204 47.8381L22.7496 50.2878L20.373 48.6493C19.3323 47.9322 17.9073 48.1945 17.1901 49.2352C17.0181 49.4847 16.8974 49.7659 16.8351 50.0624L16.2355 52.9196H13.5156L12.9161 50.067C12.6558 48.8302 11.4422 48.0386 10.2054 48.2989C9.90889 48.3613 9.6277 48.482 9.37811 48.6539L7.0004 50.2878L4.91562 48.2076L6.55301 45.8322C7.27087 44.792 7.00941 43.3668 5.96917 42.649C5.71944 42.4766 5.43796 42.3556 5.14103 42.2931L2.28846 41.6924V38.9737L5.14103 38.373C6.37737 38.1108 7.16717 36.8961 6.905 35.6596C6.84279 35.3662 6.72364 35.088 6.55415 34.8407L4.91562 32.4585L7.0004 30.3782L9.37926 32.0168C10.4204 32.7332 11.8454 32.47 12.5618 31.4289C12.7334 31.1796 12.8539 30.8987 12.9161 30.6025L13.1163 29.6505C13.2997 30.969 13.6033 32.2677 14.0237 33.5306C10.2587 33.9794 7.57052 37.3955 8.01934 41.1605C8.46816 44.9254 11.8843 47.6136 15.6492 47.1648C17.9156 46.8945 19.8996 45.5156 20.9428 43.4854ZM19.1659 41.8732C18.3114 44.2482 15.6935 45.4808 13.3186 44.6265C10.9436 43.772 9.71094 41.1542 10.5653 38.7792C11.2189 36.9623 12.944 35.7521 14.8749 35.7561C14.8897 35.7561 14.9035 35.7561 14.9183 35.7561C15.9706 38.025 17.4076 40.0945 19.1659 41.8732ZM65.8665 24.7303L62.5482 24.2566C60.6714 23.9886 58.9327 25.2929 58.6647 27.1695C58.536 28.0708 58.7705 28.9863 59.3169 29.7146L61.3273 32.3955L57.6658 35.1417L55.6542 32.4619C54.5168 30.9451 52.3653 30.6374 50.8486 31.7748C50.1203 32.3209 49.6387 33.134 49.5097 34.0352L49.0463 37.358L44.5163 36.7104L44.99 33.3921C45.2587 31.5155 43.9552 29.7762 42.0785 29.5076C41.1767 29.3785 40.2607 29.613 39.532 30.1597L36.8511 32.1701L34.1049 28.5086L36.7847 26.497C38.3015 25.3596 38.6092 23.2081 37.4718 21.6914C36.9257 20.9631 36.1126 20.4815 35.2114 20.3525L31.8931 19.8788L32.5408 15.3488L35.859 15.8225C37.7357 16.0912 39.4749 14.7877 39.7436 12.911C39.8727 12.0092 39.6381 11.0932 39.0915 10.3645L37.0742 7.68129L40.7357 4.93514L42.7473 7.61607C43.8847 9.13289 46.0362 9.44055 47.5529 8.30318C48.2812 7.7571 48.7628 6.94398 48.8918 6.04276L49.3655 2.72449L53.8955 3.37098L53.4218 6.68925C53.1538 8.56607 54.4579 10.3047 56.3347 10.5728C57.236 10.7015 58.1515 10.4669 58.8798 9.92055L61.5607 7.91014L64.3069 11.5717L61.626 13.5832C60.1091 14.7206 59.8015 16.8722 60.9388 18.3889C61.4849 19.1172 62.298 19.5987 63.1993 19.7277L66.5175 20.2015L65.8665 24.7303Z" fill="#4047CD"/>
<path d="M49.2019 10.8851C44.1464 10.8851 40.0481 14.9835 40.0481 20.039C40.0481 25.0945 44.1464 29.1928 49.2019 29.1928C54.2574 29.1928 58.3558 25.0945 58.3558 20.039C58.3501 14.9858 54.2551 10.8907 49.2019 10.8851ZM49.2019 26.9044C45.4102 26.9044 42.3366 23.8307 42.3366 20.039C42.3366 16.2473 45.4102 13.1736 49.2019 13.1736C52.9936 13.1736 56.0673 16.2473 56.0673 20.039C56.0629 23.8288 52.9918 26.8999 49.2019 26.9044Z" fill="#4047CD"/>
<path d="M35.7731 50.6311H33.4846V54.0638H35.7731V50.6311Z" fill="#4047CD"/>
<path d="M29.6241 39.3936C22.5607 36.6343 19.0715 28.6713 21.8309 21.6079C22.9002 18.8709 24.8192 16.5491 27.3059 14.9838L26.0827 13.0477C18.5972 17.7635 16.3518 27.6547 21.0676 35.1402C22.8939 38.0393 25.6017 40.2764 28.7934 41.523C31.6185 42.6055 33.484 45.3173 33.4848 48.3426H35.7732C35.7768 44.3733 33.3307 40.8135 29.6241 39.3936Z" fill="#4047CD"/>
<path d="M64.379 42.6215H56.3694V44.9099H64.379V42.6215Z" fill="#4047CD"/>
<path d="M55.9578 48.6071L54.4929 50.3653L61.3588 56.0855L62.8236 54.3273L55.9578 48.6071Z" fill="#4047CD"/>
<path d="M51.7924 51.7753H49.5039V59.7849H51.7924V51.7753Z" fill="#4047CD"/>
<path d="M10.3217 17.4819L1.16846 19.77L1.72313 21.9889L10.8763 19.7008L10.3217 17.4819Z" fill="#4047CD"/>
<path d="M4.39848 6.22084L3.06909 8.08203L11.0781 13.8026L12.4075 11.9414L4.39848 6.22084Z" fill="#4047CD"/>
<path d="M15.0901 -1.81222e-05L12.873 0.566833L15.2133 9.71997L17.4304 9.15311L15.0901 -1.81222e-05Z" fill="#4047CD"/>
</svg>
