<svg width="15" height="15" viewBox="0 0 15 15" fill="none" xmlns="http://www.w3.org/2000/svg">
<path fill-rule="evenodd" clip-rule="evenodd" d="M0.433532 5.09467C-0.410055 2.78399 0.0960974 1.26232 0.939685 0.473303C1.78327 -0.315711 2.06447 0.0224381 2.62686 0.473303C3.18925 0.980527 4.9889 2.72763 4.9889 2.72763C4.9889 2.72763 5.5513 3.12214 5.04514 3.79844C4.59523 4.53109 3.41421 5.03832 4.31403 6.10912C5.77625 7.85622 7.12599 9.26518 8.92565 10.6741C9.99419 11.5759 10.5003 10.4487 11.1752 9.94148C11.8501 9.43425 12.3 9.99783 12.3 9.99783C12.3 9.99783 14.0434 11.8013 14.4933 12.3649C14.9432 12.9285 15.3369 13.2666 14.5496 14.112C13.7622 14.901 12.1875 15.4082 9.88171 14.5628C7.01351 13.492 1.55832 8.0253 0.433532 5.09467ZM6.61984 2.44584C5.83249 2.44584 5.88873 1.31868 6.61984 1.31868C10.5003 1.26232 13.706 4.47473 13.706 8.41981C13.706 9.15246 12.5812 9.15246 12.5812 8.41981C12.5812 5.09467 9.88171 2.38948 6.61984 2.44584ZM7.57591 5.03832C6.8448 5.03832 6.8448 3.91115 7.57591 3.91115C9.48804 3.91115 11.0627 5.48918 11.0627 7.40536C11.0627 8.13801 9.93795 8.13801 9.93795 7.40536C9.93795 6.10912 8.86941 5.03832 7.57591 5.03832Z" fill="#4047CD"/>
</svg>
