<svg width="19" height="11" viewBox="0 0 19 11" fill="none" xmlns="http://www.w3.org/2000/svg">
<path d="M3.25895 0L10.7955 6.3423L18.332 0H3.25895ZM2.59098 0.566759V2.37499H0.398164C0.133925 2.37499 -0.00388318 2.61106 8.32697e-05 2.80681C0.00420712 3.01032 0.116008 3.23862 0.4319 3.23862H5.76888L2.59098 0.566759ZM19 0.566759L13.2582 5.3977L19 10.2286V0.566759ZM6.72022 4.04153C6.65804 4.07933 6.57743 4.10225 6.47733 4.10225H1.07962C0.829222 4.10225 0.641464 4.34769 0.647808 4.55431C0.654753 4.78059 0.853248 4.96589 1.07962 4.96589H4.75006C5.00046 4.96589 5.18822 5.21132 5.18188 5.41794C5.17493 5.64422 4.97644 5.82952 4.75006 5.82952H1.94326C1.69296 5.82952 1.50655 6.07325 1.51144 6.28158C1.5161 6.48036 1.71688 6.69315 1.94326 6.69315H2.59098H3.23871C3.489 6.69315 3.67541 6.93688 3.67052 7.14521C3.66586 7.344 3.46508 7.55678 3.23871 7.55678H2.59098V8.85223V10.2286L8.33279 5.3977L6.72022 4.04153ZM12.5902 5.95771L11.0721 7.23967C10.9184 7.36788 10.6726 7.36788 10.5189 7.23967L9.00075 5.96446L3.25895 10.7954H18.332L12.5902 5.95771Z" fill="#4047CD"/>
</svg>
