<svg width="294" height="61" viewBox="0 0 294 61" fill="none" xmlns="http://www.w3.org/2000/svg">
<path d="M33.2453 44.6083C33.2453 42.2977 32.4305 40.5307 30.8008 39.3075C29.1711 38.057 26.2377 36.7522 22.0006 35.393C17.7634 34.0067 14.409 32.6475 11.9373 31.3155C5.20137 27.6729 1.83338 22.7663 1.83338 16.5956C1.83338 13.3879 2.7297 10.5336 4.52234 8.03275C6.34214 5.50468 8.93603 3.53387 12.304 2.12032C15.6992 0.706774 19.5017 0 23.7117 0C27.9489 0 31.7243 0.774733 35.0379 2.3242C38.3516 3.84648 40.9183 6.00758 42.7381 8.80749C44.5851 11.6074 45.5086 14.7879 45.5086 18.3489H33.286C33.286 15.6306 32.4305 13.5238 30.7193 12.0287C29.0081 10.5065 26.6044 9.74532 23.508 9.74532C20.5203 9.74532 18.198 10.3841 16.5412 11.6618C14.8843 12.9122 14.0559 14.5704 14.0559 16.6364C14.0559 18.5664 15.0201 20.1838 16.9486 21.4886C18.9042 22.7934 21.7697 24.0167 25.5451 25.1584C32.4984 27.2516 37.5639 29.8476 40.7418 32.9465C43.9196 36.0455 45.5086 39.9055 45.5086 44.5267C45.5086 49.6644 43.5665 53.7012 39.6825 56.637C35.7984 59.5457 30.5699 61 23.9969 61C19.4338 61 15.2782 60.1709 11.5299 58.5127C7.78168 56.8273 4.91617 54.5303 2.93341 51.6217C0.977803 48.713 0 45.3422 0 41.5094H12.2633C12.2633 48.0606 16.1745 51.3362 23.9969 51.3362C26.9032 51.3362 29.1711 50.7518 30.8008 49.5829C32.4305 48.3868 33.2453 46.7286 33.2453 44.6083Z" fill="#4047CD"/>
<path d="M89.5097 35.9231H66.0424V60.1845H53.8199V0.815508H92.4431V10.7239H66.0424V26.0555H89.5097V35.9231Z" fill="#4047CD"/>
<path d="M145 10.7239H126.829V60.1845H114.607V10.7239H96.6802V0.815508H145V10.7239Z" fill="#4047CD"/>
<path d="M161.448 20.6237C161.448 20.2386 161.3 19.9418 161.005 19.7333C160.713 19.5247 160.185 19.3142 159.419 19.1016C158.653 18.889 158.044 18.6524 157.592 18.3917C156.726 17.8904 156.294 17.2366 156.294 16.4305C156.294 15.7246 156.605 15.143 157.227 14.6858C157.853 14.2286 158.664 14 159.66 14C160.322 14 160.911 14.1123 161.429 14.3369C161.946 14.5615 162.353 14.8824 162.649 15.2995C162.945 15.7126 163.093 16.1718 163.093 16.6771H161.448C161.448 16.2199 161.292 15.863 160.979 15.6063C160.67 15.3456 160.226 15.2152 159.647 15.2152C159.108 15.2152 158.688 15.3215 158.388 15.5341C158.092 15.7467 157.944 16.0434 157.944 16.4245C157.944 16.7453 158.105 17.014 158.427 17.2306C158.749 17.4432 159.28 17.6517 160.019 17.8563C160.759 18.0568 161.353 18.2874 161.801 18.5481C162.249 18.8048 162.577 19.1016 162.786 19.4385C162.995 19.7714 163.099 20.1624 163.099 20.6116C163.099 21.3416 162.795 21.9231 162.186 22.3563C161.581 22.7854 160.759 23 159.719 23C159.032 23 158.399 22.8837 157.82 22.6511C157.246 22.4144 156.798 22.0896 156.476 21.6765C156.159 21.2634 156 20.7821 156 20.2326H157.651C157.651 20.7299 157.829 21.115 158.186 21.3877C158.543 21.6604 159.054 21.7968 159.719 21.7968C160.293 21.7968 160.724 21.6905 161.011 21.4779C161.303 21.2614 161.448 20.9766 161.448 20.6237Z" fill="#4047CD"/>
<path d="M171.764 14.1203V19.9739C171.764 20.9044 171.44 21.6424 170.792 22.1878C170.148 22.7293 169.289 23 168.214 23C167.127 23 166.263 22.7333 165.624 22.1999C164.985 21.6624 164.665 20.9184 164.665 19.9679V14.1203H166.309V19.9799C166.309 20.5655 166.47 21.0127 166.792 21.3215C167.114 21.6303 167.588 21.7848 168.214 21.7848C169.485 21.7848 170.12 21.1671 170.12 19.9318V14.1203H171.764Z" fill="#4047CD"/>
<path d="M177.29 19.5047H175.45V22.8797H173.799V14.1203H177.14C178.236 14.1203 179.082 14.3469 179.678 14.8001C180.274 15.2533 180.572 15.9091 180.572 16.7674C180.572 17.3529 180.418 17.8443 180.109 18.2413C179.805 18.6344 179.378 18.9372 178.83 19.1497L180.964 22.8015V22.8797H179.196L177.29 19.5047ZM175.45 18.2834H177.147C177.703 18.2834 178.138 18.1551 178.452 17.8984C178.765 17.6377 178.921 17.2828 178.921 16.8336C178.921 16.3643 178.776 16.0013 178.484 15.7447C178.197 15.488 177.767 15.3556 177.192 15.3476H175.45V18.2834Z" fill="#4047CD"/>
<path d="M187.88 19.1678H184.056V22.8797H182.406V14.1203H188.441V15.3476H184.056V17.9525H187.88V19.1678Z" fill="#4047CD"/>
<path d="M194.085 20.8402H190.405L189.635 22.8797H187.919L191.507 14.1203H192.989L196.584 22.8797H194.861L194.085 20.8402ZM190.868 19.613H193.622L192.245 15.9793L190.868 19.613Z" fill="#4047CD"/>
<path d="M205.04 20.0281C204.944 20.9626 204.57 21.6925 203.918 22.2179C203.265 22.7393 202.397 23 201.314 23C200.557 23 199.89 22.8356 199.311 22.5067C198.737 22.1738 198.293 21.7025 197.98 21.0929C197.667 20.4833 197.504 19.7754 197.491 18.9693V18.1511C197.491 17.3249 197.649 16.5969 197.967 15.9672C198.284 15.3376 198.739 14.8523 199.331 14.5114C199.927 14.1705 200.614 14 201.392 14C202.441 14 203.285 14.2627 203.924 14.7881C204.564 15.3135 204.935 16.0555 205.04 17.014H203.396C203.317 16.3844 203.117 15.9311 202.795 15.6544C202.478 15.3737 202.01 15.2333 201.392 15.2333C200.675 15.2333 200.122 15.4759 199.735 15.9612C199.352 16.4425 199.157 17.1504 199.148 18.0849V18.861C199.148 19.8075 199.331 20.5294 199.696 21.0267C200.066 21.5241 200.605 21.7727 201.314 21.7727C201.962 21.7727 202.449 21.6384 202.776 21.3697C203.102 21.1009 203.309 20.6537 203.396 20.0281H205.04Z" fill="#4047CD"/>
<path d="M212.341 18.9693H208.439V21.6644H213V22.8797H206.788V14.1203H212.954V15.3476H208.439V17.766H212.341V18.9693Z" fill="#4047CD"/>
<path d="M161.461 43.1678H157.647V46.8797H156V38.1203H162.021V39.3476H157.647V41.9525H161.461V43.1678Z" fill="#4047CD"/>
<path d="M165.333 46.8797H163.693V38.1203H165.333V46.8797Z" fill="#4047CD"/>
<path d="M175.142 46.8797H173.495L169.271 40.6651V46.8797H167.624V38.1203H169.271L173.508 44.359V38.1203H175.142V46.8797Z" fill="#4047CD"/>
<path d="M179.092 46.8797H177.452V38.1203H179.092V46.8797Z" fill="#4047CD"/>
<path d="M186.336 44.6237C186.336 44.2386 186.189 43.9418 185.894 43.7333C185.603 43.5247 185.076 43.3142 184.312 43.1016C183.548 42.889 182.941 42.6524 182.49 42.3917C181.626 41.8904 181.194 41.2366 181.194 40.4305C181.194 39.7246 181.505 39.143 182.125 38.6858C182.75 38.2286 183.559 38 184.553 38C185.212 38 185.8 38.1123 186.317 38.3369C186.833 38.5615 187.239 38.8824 187.534 39.2995C187.829 39.7126 187.976 40.1718 187.976 40.6771H186.336C186.336 40.2199 186.18 39.863 185.868 39.6063C185.559 39.3456 185.117 39.2152 184.54 39.2152C184.002 39.2152 183.583 39.3215 183.284 39.5341C182.989 39.7467 182.841 40.0434 182.841 40.4245C182.841 40.7453 183.002 41.014 183.323 41.2306C183.644 41.4432 184.173 41.6517 184.911 41.8563C185.648 42.0568 186.241 42.2874 186.688 42.5481C187.135 42.8048 187.462 43.1016 187.67 43.4385C187.879 43.7714 187.983 44.1624 187.983 44.6116C187.983 45.3416 187.679 45.9231 187.072 46.3563C186.469 46.7854 185.648 47 184.611 47C183.926 47 183.294 46.8837 182.717 46.6511C182.145 46.4144 181.698 46.0896 181.377 45.6765C181.06 45.2634 180.901 44.7821 180.901 44.2326H182.548C182.548 44.7299 182.726 45.115 183.082 45.3877C183.438 45.6604 183.947 45.7968 184.611 45.7968C185.184 45.7968 185.614 45.6905 185.9 45.4779C186.191 45.2614 186.336 44.9766 186.336 44.6237Z" fill="#4047CD"/>
<path d="M197.219 46.8797H195.578V42.9873H191.341V46.8797H189.694V38.1203H191.341V41.766H195.578V38.1203H197.219V46.8797Z" fill="#4047CD"/>
<path d="M201.176 46.8797H199.535V38.1203H201.176V46.8797Z" fill="#4047CD"/>
<path d="M210.984 46.8797H209.337L205.113 40.6651V46.8797H203.466V38.1203H205.113L209.35 44.359V38.1203H210.984V46.8797Z" fill="#4047CD"/>
<path d="M220.46 45.7426C220.118 46.1557 219.642 46.4686 219.035 46.6811C218.428 46.8937 217.738 47 216.965 47C216.171 47 215.468 46.8336 214.856 46.5007C214.245 46.1678 213.772 45.6925 213.437 45.0749C213.108 44.4532 212.936 43.7293 212.923 42.9031V42.2172C212.923 40.8937 213.266 39.861 213.952 39.119C214.637 38.373 215.594 38 216.822 38C217.876 38 218.714 38.2406 219.334 38.7219C219.955 39.2032 220.328 39.8971 220.454 40.8035H218.84C218.657 39.7487 217.996 39.2213 216.855 39.2213C216.117 39.2213 215.555 39.4679 215.169 39.9612C214.787 40.4505 214.59 41.1705 214.577 42.121V42.7948C214.577 43.7413 214.791 44.4773 215.221 45.0027C215.655 45.5241 216.256 45.7848 217.024 45.7848C217.866 45.7848 218.464 45.6083 218.82 45.2553V43.5408H216.868V42.3857H220.46V45.7426Z" fill="#4047CD"/>
<path d="M232.579 39.3476H229.624V46.8797H227.991V39.3476H225.062V38.1203H232.579V39.3476Z" fill="#4047CD"/>
<path d="M241.476 42.7286C241.476 43.5869 241.316 44.3409 240.995 44.9906C240.674 45.6364 240.214 46.1337 239.615 46.4826C239.02 46.8275 238.335 47 237.558 47C236.79 47 236.104 46.8275 235.501 46.4826C234.903 46.1337 234.438 45.6384 234.108 44.9967C233.783 44.3549 233.618 43.615 233.614 42.7767V42.2834C233.614 41.4291 233.777 40.6751 234.102 40.0214C234.432 39.3676 234.894 38.8683 235.488 38.5234C236.087 38.1745 236.773 38 237.545 38C238.317 38 239.001 38.1725 239.595 38.5174C240.194 38.8583 240.656 39.3516 240.982 39.9973C241.307 40.639 241.472 41.387 241.476 42.2413V42.7286ZM239.83 42.2714C239.83 41.3008 239.63 40.5568 239.231 40.0394C238.836 39.5221 238.274 39.2634 237.545 39.2634C236.833 39.2634 236.276 39.5221 235.872 40.0394C235.473 40.5528 235.269 41.2807 235.26 42.2233V42.7286C235.26 43.6912 235.462 44.4352 235.866 44.9606C236.274 45.486 236.838 45.7487 237.558 45.7487C238.287 45.7487 238.847 45.492 239.237 44.9786C239.632 44.4652 239.83 43.7152 239.83 42.7286V42.2714Z" fill="#4047CD"/>
<path d="M250.946 42.7286C250.946 43.5869 250.786 44.3409 250.465 44.9906C250.144 45.6364 249.684 46.1337 249.085 46.4826C248.49 46.8275 247.805 47 247.028 47C246.26 47 245.574 46.8275 244.971 46.4826C244.372 46.1337 243.908 45.6384 243.578 44.9967C243.253 44.3549 243.088 43.615 243.084 42.7767V42.2834C243.084 41.4291 243.246 40.6751 243.572 40.0214C243.902 39.3676 244.364 38.8683 244.958 38.5234C245.557 38.1745 246.243 38 247.015 38C247.787 38 248.471 38.1725 249.065 38.5174C249.664 38.8583 250.126 39.3516 250.452 39.9973C250.777 40.639 250.942 41.387 250.946 42.2413V42.7286ZM249.3 42.2714C249.3 41.3008 249.1 40.5568 248.701 40.0394C248.306 39.5221 247.744 39.2634 247.015 39.2634C246.303 39.2634 245.746 39.5221 245.342 40.0394C244.943 40.5528 244.739 41.2807 244.73 42.2233V42.7286C244.73 43.6912 244.932 44.4352 245.336 44.9606C245.744 45.486 246.308 45.7487 247.028 45.7487C247.757 45.7487 248.317 45.492 248.707 44.9786C249.102 44.4652 249.3 43.7152 249.3 42.7286V42.2714Z" fill="#4047CD"/>
<path d="M254.5 45.6644H258.802V46.8797H252.853V38.1203H254.5V45.6644Z" fill="#4047CD"/>
<path d="M265.285 44.6237C265.285 44.2386 265.137 43.9418 264.842 43.7333C264.551 43.5247 264.024 43.3142 263.26 43.1016C262.497 42.889 261.889 42.6524 261.438 42.3917C260.574 41.8904 260.143 41.2366 260.143 40.4305C260.143 39.7246 260.453 39.143 261.073 38.6858C261.698 38.2286 262.507 38 263.501 38C264.161 38 264.749 38.1123 265.265 38.3369C265.781 38.5615 266.187 38.8824 266.482 39.2995C266.777 39.7126 266.925 40.1718 266.925 40.6771H265.285C265.285 40.2199 265.128 39.863 264.816 39.6063C264.508 39.3456 264.065 39.2152 263.488 39.2152C262.95 39.2152 262.531 39.3215 262.232 39.5341C261.937 39.7467 261.789 40.0434 261.789 40.4245C261.789 40.7453 261.95 41.014 262.271 41.2306C262.592 41.4432 263.121 41.6517 263.859 41.8563C264.597 42.0568 265.189 42.2874 265.636 42.5481C266.083 42.8048 266.411 43.1016 266.619 43.4385C266.827 43.7714 266.931 44.1624 266.931 44.6116C266.931 45.3416 266.627 45.9231 266.02 46.3563C265.417 46.7854 264.597 47 263.56 47C262.874 47 262.243 46.8837 261.666 46.6511C261.093 46.4144 260.646 46.0896 260.325 45.6765C260.008 45.2634 259.85 44.7821 259.85 44.2326H261.496C261.496 44.7299 261.674 45.115 262.03 45.3877C262.386 45.6604 262.896 45.7968 263.56 45.7968C264.132 45.7968 264.562 45.6905 264.848 45.4779C265.139 45.2614 265.285 44.9766 265.285 44.6237Z" fill="#4047CD"/>
<path d="M273.876 45.6644H278.178V46.8797H272.229V38.1203H273.876V45.6644Z" fill="#4047CD"/>
<path d="M281.354 45.6644H285.656V46.8797H279.707V38.1203H281.354V45.6644Z" fill="#4047CD"/>
<path d="M294 44.0281C293.905 44.9626 293.531 45.6925 292.88 46.2179C292.23 46.7393 291.364 47 290.284 47C289.528 47 288.862 46.8356 288.285 46.5067C287.713 46.1738 287.27 45.7025 286.958 45.0929C286.645 44.4833 286.482 43.7754 286.469 42.9693V42.1511C286.469 41.3249 286.628 40.5969 286.945 39.9672C287.261 39.3376 287.715 38.8523 288.305 38.5114C288.899 38.1705 289.585 38 290.362 38C291.407 38 292.249 38.2627 292.887 38.7881C293.525 39.3135 293.896 40.0555 294 41.014H292.36C292.282 40.3844 292.082 39.9311 291.761 39.6544C291.444 39.3737 290.978 39.2333 290.362 39.2333C289.646 39.2333 289.095 39.4759 288.708 39.9612C288.327 40.4425 288.131 41.1504 288.123 42.0849V42.861C288.123 43.8075 288.305 44.5294 288.669 45.0267C289.038 45.5241 289.576 45.7727 290.284 45.7727C290.93 45.7727 291.416 45.6384 291.741 45.3697C292.067 45.1009 292.273 44.6537 292.36 44.0281H294Z" fill="#4047CD"/>
</svg>
