<svg width="15" height="15" viewBox="0 0 15 15" fill="none" xmlns="http://www.w3.org/2000/svg">
<path d="M11.7559 10.4032C11.6686 10.316 11.565 10.2469 11.451 10.1997C11.337 10.1526 11.2148 10.1283 11.0914 10.1284C10.968 10.1285 10.8458 10.1529 10.7319 10.2002C10.6179 10.2476 10.5144 10.3169 10.4272 10.4042L10.4138 10.4177C10.3264 10.5047 10.257 10.6081 10.2096 10.7219C10.1622 10.8358 10.1378 10.9579 10.1377 11.0812C10.1376 11.2046 10.1619 11.3267 10.2091 11.4406C10.2563 11.5546 10.3255 11.6581 10.4128 11.7452L12.6252 13.9555C12.7999 14.1299 13.0355 14.2295 13.2823 14.2333C13.5291 14.237 13.7676 14.1447 13.9475 13.9757C14.0388 13.8841 14.1111 13.7754 14.1601 13.6558C14.2092 13.5362 14.2341 13.408 14.2334 13.2788C14.2327 13.1495 14.2063 13.0216 14.156 12.9025C14.1056 12.7835 14.0321 12.6756 13.9398 12.5851L11.7559 10.4032Z" fill="#3C3D3E"/>
<path d="M5.77784 11.5451C6.91932 11.5441 8.03486 11.2046 8.98345 10.5697C9.93205 9.93475 10.6711 9.03283 11.1072 7.97794C11.5433 6.92306 11.6569 5.76256 11.4335 4.64314C11.2102 3.52373 10.66 2.49565 9.85249 1.68887C9.04497 0.882098 8.01639 0.332841 6.89677 0.110534C5.77715 -0.111773 4.61676 0.0028517 3.56227 0.439917C2.50778 0.876983 1.60655 1.61687 0.972484 2.56604C0.338422 3.51522 4.7934e-07 4.63107 0 5.77255C0.00244097 7.30369 0.612128 8.77134 1.69531 9.85353C2.77848 10.9357 4.2467 11.5441 5.77784 11.5451V11.5451ZM5.77784 1.89782C6.54404 1.89853 7.29283 2.12637 7.92955 2.55256C8.56628 2.97875 9.06236 3.58414 9.35509 4.29221C9.64781 5.00029 9.72404 5.77926 9.57413 6.53064C9.42422 7.28203 9.05491 7.97211 8.51288 8.51365C7.97085 9.05518 7.28043 9.42386 6.52891 9.57308C5.77738 9.7223 4.99848 9.64536 4.29068 9.35199C3.58287 9.05861 2.97793 8.56198 2.55233 7.92486C2.12672 7.28774 1.89956 6.53875 1.89956 5.77255C1.90119 4.74479 2.31042 3.75965 3.03749 3.03324C3.76456 2.30684 4.75008 1.89851 5.77784 1.89782V1.89782Z" fill="#3C3D3E"/>
</svg>
